# xmcd CD database file
#
# Track frame offsets:
#	150
#	30928
#	48343
#	79048
#	100440
#	126008
#	160428
#	187354
#	225706
#	244693
#	277365
#	298069
#
# Disc length: 4371 seconds
#
# Revision: 0
# Processed by: cddbd v1.5.2PL0 Copyright (c) Steve Scherf et al.
# Submitted via: CDex 1.51
#
DISCID=af11110c
DTITLE=Omar Lopez - Experience
DYEAR=2007
DGENRE=New Age
TTITLE0=Dawn
TTITLE1=Canon
TTITLE2=Love Someone
TTITLE3=Tiger Eyes
TTITLE4=Exodus
TTITLE5=Testimonial Ocean
TTITLE6=Fireflight
TTITLE7=Fallen - Resurrection
TTITLE8=Heart of the Moon (De la Luna)
TTITLE9=Full Circle
TTITLE10=Ave Maria - Amazing Grace
TTITLE11=Forever Red
EXTD=YEAR: 2007
EXTT0=
EXTT1=
EXTT2=
EXTT3=
EXTT4=
EXTT5=
EXTT6=
EXTT7=
EXTT8=
EXTT9=
EXTT10=
EXTT11=
PLAYORDER=
